<svg width="121" height="32" viewBox="0 0 121 32" fill="none" xmlns="http://www.w3.org/2000/svg">
<path d="M19.1 2.94V24H13.97V15.33H5.99V24H0.86V2.94H5.99V11.19H13.97V2.94H19.1ZM21.7834 15.6C21.7834 13.88 22.1034 12.37 22.7434 11.07C23.4034 9.77 24.2934 8.77 25.4134 8.07C26.5334 7.37 27.7834 7.02 29.1634 7.02C30.3434 7.02 31.3734 7.26 32.2534 7.74C33.1534 8.22 33.8434 8.85 34.3234 9.63V7.26H39.4534V24H34.3234V21.63C33.8234 22.41 33.1234 23.04 32.2234 23.52C31.3434 24 30.3134 24.24 29.1334 24.24C27.7734 24.24 26.5334 23.89 25.4134 23.19C24.2934 22.47 23.4034 21.46 22.7434 20.16C22.1034 18.84 21.7834 17.32 21.7834 15.6ZM34.3234 15.63C34.3234 14.35 33.9634 13.34 33.2434 12.6C32.5434 11.86 31.6834 11.49 30.6634 11.49C29.6434 11.49 28.7734 11.86 28.0534 12.6C27.3534 13.32 27.0034 14.32 27.0034 15.6C27.0034 16.88 27.3534 17.9 28.0534 18.66C28.7734 19.4 29.6434 19.77 30.6634 19.77C31.6834 19.77 32.5434 19.4 33.2434 18.66C33.9634 17.92 34.3234 16.91 34.3234 15.63ZM53.3647 7.08C55.3247 7.08 56.8847 7.72 58.0447 9C59.2247 10.26 59.8147 12 59.8147 14.22V24H54.7147V14.91C54.7147 13.79 54.4247 12.92 53.8447 12.3C53.2647 11.68 52.4847 11.37 51.5047 11.37C50.5247 11.37 49.7447 11.68 49.1647 12.3C48.5847 12.92 48.2947 13.79 48.2947 14.91V24H43.1647V7.26H48.2947V9.48C48.8147 8.74 49.5147 8.16 50.3947 7.74C51.2747 7.3 52.2647 7.08 53.3647 7.08ZM62.3595 15.6C62.3595 13.88 62.6795 12.37 63.3195 11.07C63.9795 9.77 64.8695 8.77 65.9895 8.07C67.1095 7.37 68.3595 7.02 69.7395 7.02C70.8395 7.02 71.8395 7.25 72.7395 7.71C73.6595 8.17 74.3795 8.79 74.8995 9.57V1.8H80.0295V24H74.8995V21.6C74.4195 22.4 73.7295 23.04 72.8295 23.52C71.9495 24 70.9195 24.24 69.7395 24.24C68.3595 24.24 67.1095 23.89 65.9895 23.19C64.8695 22.47 63.9795 21.46 63.3195 20.16C62.6795 18.84 62.3595 17.32 62.3595 15.6ZM74.8995 15.63C74.8995 14.35 74.5395 13.34 73.8195 12.6C73.1195 11.86 72.2595 11.49 71.2395 11.49C70.2195 11.49 69.3495 11.86 68.6295 12.6C67.9295 13.32 67.5795 14.32 67.5795 15.6C67.5795 16.88 67.9295 17.9 68.6295 18.66C69.3495 19.4 70.2195 19.77 71.2395 19.77C72.2595 19.77 73.1195 19.4 73.8195 18.66C74.5395 17.92 74.8995 16.91 74.8995 15.63ZM92.1409 11.52H89.3809V24H84.2509V11.52H82.3909V7.26H84.2509V6.78C84.2509 4.72 84.8409 3.16 86.0209 2.1C87.2009 1.02 88.9309 0.479999 91.2109 0.479999C91.5909 0.479999 91.8709 0.489999 92.0509 0.509998V4.86C91.0709 4.8 90.3809 4.94 89.9809 5.28C89.5809 5.62 89.3809 6.23 89.3809 7.11V7.26H92.1409V11.52ZM99.6814 1.8V24H94.5514V1.8H99.6814ZM120.499 7.26L109.999 31.95H104.479L108.319 23.43L101.509 7.26H107.239L111.109 17.73L114.949 7.26H120.499Z" fill="black"/>
</svg>
